<?xml version="1.0" standalone="no"?>
<svg xmlns:xlink="http://www.w3.org/1999/xlink" id="wave" style="transform:rotate(0deg); transition: 0.3s" viewBox="0 0 1440 400" version="1.1" xmlns="http://www.w3.org/2000/svg"><defs><linearGradient id="sw-gradient-0" x1="0" x2="0" y1="1" y2="0"><stop stop-color="rgba(180.775, 209.736, 255, 1)" offset="0%"/><stop stop-color="rgba(155.188, 153.974, 228.096, 1)" offset="100%"/></linearGradient></defs><path style="transform:translate(0, 0px); opacity:1" fill="url(#sw-gradient-0)" d="M0,120L80,106.7C160,93,320,67,480,100C640,133,800,227,960,220C1120,213,1280,107,1440,100C1600,93,1760,187,1920,246.7C2080,307,2240,333,2400,346.7C2560,360,2720,360,2880,300C3040,240,3200,120,3360,66.7C3520,13,3680,27,3840,86.7C4000,147,4160,253,4320,306.7C4480,360,4640,360,4800,306.7C4960,253,5120,147,5280,120C5440,93,5600,147,5760,186.7C5920,227,6080,253,6240,280C6400,307,6560,333,6720,333.3C6880,333,7040,307,7200,273.3C7360,240,7520,200,7680,186.7C7840,173,8000,187,8160,186.7C8320,187,8480,173,8640,140C8800,107,8960,53,9120,53.3C9280,53,9440,107,9600,113.3C9760,120,9920,80,10080,60C10240,40,10400,40,10560,46.7C10720,53,10880,67,11040,66.7C11200,67,11360,53,11440,46.7L11520,40L11520,400L11440,400C11360,400,11200,400,11040,400C10880,400,10720,400,10560,400C10400,400,10240,400,10080,400C9920,400,9760,400,9600,400C9440,400,9280,400,9120,400C8960,400,8800,400,8640,400C8480,400,8320,400,8160,400C8000,400,7840,400,7680,400C7520,400,7360,400,7200,400C7040,400,6880,400,6720,400C6560,400,6400,400,6240,400C6080,400,5920,400,5760,400C5600,400,5440,400,5280,400C5120,400,4960,400,4800,400C4640,400,4480,400,4320,400C4160,400,4000,400,3840,400C3680,400,3520,400,3360,400C3200,400,3040,400,2880,400C2720,400,2560,400,2400,400C2240,400,2080,400,1920,400C1760,400,1600,400,1440,400C1280,400,1120,400,960,400C800,400,640,400,480,400C320,400,160,400,80,400L0,400Z"/></svg>