<?xml version="1.0" standalone="no"?>
<svg xmlns:xlink="http://www.w3.org/1999/xlink" id="wave" style="transform:rotate(0deg); transition: 0.3s" viewBox="0 0 1440 270" version="1.1" xmlns="http://www.w3.org/2000/svg"><defs><linearGradient id="sw-gradient-0" x1="0" x2="0" y1="1" y2="0"><stop stop-color="rgba(180.775, 209.736, 255, 1)" offset="0%"/><stop stop-color="rgba(155.188, 153.974, 228.096, 1)" offset="100%"/></linearGradient></defs><path style="transform:translate(0, 0px); opacity:1" fill="url(#sw-gradient-0)" d="M0,216L26.7,180C53.3,144,107,72,160,40.5C213.3,9,267,18,320,36C373.3,54,427,81,480,112.5C533.3,144,587,180,640,189C693.3,198,747,180,800,166.5C853.3,153,907,144,960,121.5C1013.3,99,1067,63,1120,67.5C1173.3,72,1227,117,1280,126C1333.3,135,1387,108,1440,112.5C1493.3,117,1547,153,1600,139.5C1653.3,126,1707,63,1760,36C1813.3,9,1867,18,1920,22.5C1973.3,27,2027,27,2080,58.5C2133.3,90,2187,153,2240,184.5C2293.3,216,2347,216,2400,184.5C2453.3,153,2507,90,2560,54C2613.3,18,2667,9,2720,27C2773.3,45,2827,90,2880,112.5C2933.3,135,2987,135,3040,130.5C3093.3,126,3147,117,3200,135C3253.3,153,3307,198,3360,216C3413.3,234,3467,225,3520,193.5C3573.3,162,3627,108,3680,108C3733.3,108,3787,162,3813,189L3840,216L3840,270L3813.3,270C3786.7,270,3733,270,3680,270C3626.7,270,3573,270,3520,270C3466.7,270,3413,270,3360,270C3306.7,270,3253,270,3200,270C3146.7,270,3093,270,3040,270C2986.7,270,2933,270,2880,270C2826.7,270,2773,270,2720,270C2666.7,270,2613,270,2560,270C2506.7,270,2453,270,2400,270C2346.7,270,2293,270,2240,270C2186.7,270,2133,270,2080,270C2026.7,270,1973,270,1920,270C1866.7,270,1813,270,1760,270C1706.7,270,1653,270,1600,270C1546.7,270,1493,270,1440,270C1386.7,270,1333,270,1280,270C1226.7,270,1173,270,1120,270C1066.7,270,1013,270,960,270C906.7,270,853,270,800,270C746.7,270,693,270,640,270C586.7,270,533,270,480,270C426.7,270,373,270,320,270C266.7,270,213,270,160,270C106.7,270,53,270,27,270L0,270Z"/><defs><linearGradient id="sw-gradient-1" x1="0" x2="0" y1="1" y2="0"><stop stop-color="rgba(27.909, 135.9, 209.882, 1)" offset="0%"/><stop stop-color="rgba(11, 155.801, 255, 1)" offset="100%"/></linearGradient></defs><path style="transform:translate(0, 50px); opacity:0.9" fill="url(#sw-gradient-1)" d="M0,135L26.7,117C53.3,99,107,63,160,76.5C213.3,90,267,153,320,180C373.3,207,427,198,480,166.5C533.3,135,587,81,640,49.5C693.3,18,747,9,800,40.5C853.3,72,907,144,960,175.5C1013.3,207,1067,198,1120,189C1173.3,180,1227,171,1280,153C1333.3,135,1387,108,1440,108C1493.3,108,1547,135,1600,157.5C1653.3,180,1707,198,1760,211.5C1813.3,225,1867,234,1920,216C1973.3,198,2027,153,2080,135C2133.3,117,2187,126,2240,108C2293.3,90,2347,45,2400,31.5C2453.3,18,2507,36,2560,49.5C2613.3,63,2667,72,2720,94.5C2773.3,117,2827,153,2880,144C2933.3,135,2987,81,3040,67.5C3093.3,54,3147,81,3200,81C3253.3,81,3307,54,3360,40.5C3413.3,27,3467,27,3520,31.5C3573.3,36,3627,45,3680,45C3733.3,45,3787,36,3813,31.5L3840,27L3840,270L3813.3,270C3786.7,270,3733,270,3680,270C3626.7,270,3573,270,3520,270C3466.7,270,3413,270,3360,270C3306.7,270,3253,270,3200,270C3146.7,270,3093,270,3040,270C2986.7,270,2933,270,2880,270C2826.7,270,2773,270,2720,270C2666.7,270,2613,270,2560,270C2506.7,270,2453,270,2400,270C2346.7,270,2293,270,2240,270C2186.7,270,2133,270,2080,270C2026.7,270,1973,270,1920,270C1866.7,270,1813,270,1760,270C1706.7,270,1653,270,1600,270C1546.7,270,1493,270,1440,270C1386.7,270,1333,270,1280,270C1226.7,270,1173,270,1120,270C1066.7,270,1013,270,960,270C906.7,270,853,270,800,270C746.7,270,693,270,640,270C586.7,270,533,270,480,270C426.7,270,373,270,320,270C266.7,270,213,270,160,270C106.7,270,53,270,27,270L0,270Z"/></svg>