<?xml version="1.0" standalone="no"?>
<svg xmlns:xlink="http://www.w3.org/1999/xlink" id="wave" style="transform:rotate(0deg); transition: 0.3s" viewBox="0 0 1440 490" version="1.1" xmlns="http://www.w3.org/2000/svg"><defs><linearGradient id="sw-gradient-0" x1="0" x2="0" y1="1" y2="0"><stop stop-color="rgba(99.896, 113.242, 187.114, 1)" offset="0%"/><stop stop-color="rgba(88.211, 150.958, 193.944, 1)" offset="100%"/></linearGradient></defs><path style="transform:translate(0, 0px); opacity:1" fill="url(#sw-gradient-0)" d="M0,147L80,130.7C160,114,320,82,480,73.5C640,65,800,82,960,106.2C1120,131,1280,163,1440,147C1600,131,1760,65,1920,57.2C2080,49,2240,98,2400,106.2C2560,114,2720,82,2880,98C3040,114,3200,180,3360,179.7C3520,180,3680,114,3840,98C4000,82,4160,114,4320,163.3C4480,212,4640,278,4800,277.7C4960,278,5120,212,5280,228.7C5440,245,5600,343,5760,318.5C5920,294,6080,147,6240,122.5C6400,98,6560,196,6720,269.5C6880,343,7040,392,7200,392C7360,392,7520,343,7680,269.5C7840,196,8000,98,8160,73.5C8320,49,8480,98,8640,147C8800,196,8960,245,9120,261.3C9280,278,9440,261,9600,269.5C9760,278,9920,310,10080,302.2C10240,294,10400,245,10560,204.2C10720,163,10880,131,11040,163.3C11200,196,11360,294,11440,343L11520,392L11520,490L11440,490C11360,490,11200,490,11040,490C10880,490,10720,490,10560,490C10400,490,10240,490,10080,490C9920,490,9760,490,9600,490C9440,490,9280,490,9120,490C8960,490,8800,490,8640,490C8480,490,8320,490,8160,490C8000,490,7840,490,7680,490C7520,490,7360,490,7200,490C7040,490,6880,490,6720,490C6560,490,6400,490,6240,490C6080,490,5920,490,5760,490C5600,490,5440,490,5280,490C5120,490,4960,490,4800,490C4640,490,4480,490,4320,490C4160,490,4000,490,3840,490C3680,490,3520,490,3360,490C3200,490,3040,490,2880,490C2720,490,2560,490,2400,490C2240,490,2080,490,1920,490C1760,490,1600,490,1440,490C1280,490,1120,490,960,490C800,490,640,490,480,490C320,490,160,490,80,490L0,490Z"/></svg>