<?xml version="1.0" standalone="no"?>
<svg xmlns:xlink="http://www.w3.org/1999/xlink" id="wave" style="transform:rotate(0deg); transition: 0.3s" viewBox="0 0 1440 210" version="1.1" xmlns="http://www.w3.org/2000/svg"><defs><linearGradient id="sw-gradient-0" x1="0" x2="0" y1="1" y2="0"><stop stop-color="rgba(94.048, 136.01, 239.48, 1)" offset="0%"/><stop stop-color="rgba(135.482, 134.281, 207.605, 1)" offset="100%"/></linearGradient></defs><path style="transform:translate(0, 0px); opacity:1" fill="url(#sw-gradient-0)" d="M0,105L34.3,108.5C68.6,112,137,119,206,119C274.3,119,343,112,411,119C480,126,549,147,617,140C685.7,133,754,98,823,73.5C891.4,49,960,35,1029,56C1097.1,77,1166,133,1234,140C1302.9,147,1371,105,1440,105C1508.6,105,1577,147,1646,154C1714.3,161,1783,133,1851,122.5C1920,112,1989,119,2057,119C2125.7,119,2194,112,2263,91C2331.4,70,2400,35,2469,31.5C2537.1,28,2606,56,2674,80.5C2742.9,105,2811,126,2880,129.5C2948.6,133,3017,119,3086,108.5C3154.3,98,3223,91,3291,91C3360,91,3429,98,3497,91C3565.7,84,3634,63,3703,77C3771.4,91,3840,140,3909,143.5C3977.1,147,4046,105,4114,94.5C4182.9,84,4251,105,4320,115.5C4388.6,126,4457,126,4526,108.5C4594.3,91,4663,56,4731,42C4800,28,4869,35,4903,38.5L4937.1,42L4937.1,210L4902.9,210C4868.6,210,4800,210,4731,210C4662.9,210,4594,210,4526,210C4457.1,210,4389,210,4320,210C4251.4,210,4183,210,4114,210C4045.7,210,3977,210,3909,210C3840,210,3771,210,3703,210C3634.3,210,3566,210,3497,210C3428.6,210,3360,210,3291,210C3222.9,210,3154,210,3086,210C3017.1,210,2949,210,2880,210C2811.4,210,2743,210,2674,210C2605.7,210,2537,210,2469,210C2400,210,2331,210,2263,210C2194.3,210,2126,210,2057,210C1988.6,210,1920,210,1851,210C1782.9,210,1714,210,1646,210C1577.1,210,1509,210,1440,210C1371.4,210,1303,210,1234,210C1165.7,210,1097,210,1029,210C960,210,891,210,823,210C754.3,210,686,210,617,210C548.6,210,480,210,411,210C342.9,210,274,210,206,210C137.1,210,69,210,34,210L0,210Z"/></svg>