<?xml version="1.0" standalone="no"?>
<svg xmlns:xlink="http://www.w3.org/1999/xlink" id="wave" style="transform:rotate(0deg); transition: 0.3s" viewBox="0 0 1440 250" version="1.1" xmlns="http://www.w3.org/2000/svg"><defs><linearGradient id="sw-gradient-0" x1="0" x2="0" y1="1" y2="0"><stop stop-color="rgba(180.775, 209.736, 255, 1)" offset="0%"/><stop stop-color="rgba(155.188, 153.974, 228.096, 1)" offset="100%"/></linearGradient></defs><path style="transform:translate(0, 0px); opacity:1" fill="url(#sw-gradient-0)" d="M0,75L80,66.7C160,58,320,42,480,50C640,58,800,92,960,108.3C1120,125,1280,125,1440,108.3C1600,92,1760,58,1920,58.3C2080,58,2240,92,2400,116.7C2560,142,2720,158,2880,145.8C3040,133,3200,92,3360,79.2C3520,67,3680,83,3840,79.2C4000,75,4160,50,4320,62.5C4480,75,4640,125,4800,158.3C4960,192,5120,208,5280,179.2C5440,150,5600,75,5760,54.2C5920,33,6080,67,6240,66.7C6400,67,6560,33,6720,37.5C6880,42,7040,83,7200,108.3C7360,133,7520,142,7680,150C7840,158,8000,167,8160,141.7C8320,117,8480,58,8640,41.7C8800,25,8960,50,9120,62.5C9280,75,9440,75,9600,62.5C9760,50,9920,25,10080,50C10240,75,10400,150,10560,150C10720,150,10880,75,11040,50C11200,25,11360,50,11440,62.5L11520,75L11520,250L11440,250C11360,250,11200,250,11040,250C10880,250,10720,250,10560,250C10400,250,10240,250,10080,250C9920,250,9760,250,9600,250C9440,250,9280,250,9120,250C8960,250,8800,250,8640,250C8480,250,8320,250,8160,250C8000,250,7840,250,7680,250C7520,250,7360,250,7200,250C7040,250,6880,250,6720,250C6560,250,6400,250,6240,250C6080,250,5920,250,5760,250C5600,250,5440,250,5280,250C5120,250,4960,250,4800,250C4640,250,4480,250,4320,250C4160,250,4000,250,3840,250C3680,250,3520,250,3360,250C3200,250,3040,250,2880,250C2720,250,2560,250,2400,250C2240,250,2080,250,1920,250C1760,250,1600,250,1440,250C1280,250,1120,250,960,250C800,250,640,250,480,250C320,250,160,250,80,250L0,250Z"/><defs><linearGradient id="sw-gradient-1" x1="0" x2="0" y1="1" y2="0"><stop stop-color="rgba(27.909, 135.9, 209.882, 1)" offset="0%"/><stop stop-color="rgba(11, 155.801, 255, 1)" offset="100%"/></linearGradient></defs><path style="transform:translate(0, 50px); opacity:0.9" fill="url(#sw-gradient-1)" d="M0,125L80,137.5C160,150,320,175,480,162.5C640,150,800,100,960,70.8C1120,42,1280,33,1440,58.3C1600,83,1760,142,1920,166.7C2080,192,2240,183,2400,170.8C2560,158,2720,142,2880,112.5C3040,83,3200,42,3360,54.2C3520,67,3680,133,3840,162.5C4000,192,4160,183,4320,154.2C4480,125,4640,75,4800,45.8C4960,17,5120,8,5280,41.7C5440,75,5600,150,5760,179.2C5920,208,6080,192,6240,162.5C6400,133,6560,92,6720,79.2C6880,67,7040,83,7200,104.2C7360,125,7520,150,7680,166.7C7840,183,8000,192,8160,175C8320,158,8480,117,8640,87.5C8800,58,8960,42,9120,58.3C9280,75,9440,125,9600,129.2C9760,133,9920,92,10080,91.7C10240,92,10400,133,10560,125C10720,117,10880,58,11040,62.5C11200,67,11360,133,11440,166.7L11520,200L11520,250L11440,250C11360,250,11200,250,11040,250C10880,250,10720,250,10560,250C10400,250,10240,250,10080,250C9920,250,9760,250,9600,250C9440,250,9280,250,9120,250C8960,250,8800,250,8640,250C8480,250,8320,250,8160,250C8000,250,7840,250,7680,250C7520,250,7360,250,7200,250C7040,250,6880,250,6720,250C6560,250,6400,250,6240,250C6080,250,5920,250,5760,250C5600,250,5440,250,5280,250C5120,250,4960,250,4800,250C4640,250,4480,250,4320,250C4160,250,4000,250,3840,250C3680,250,3520,250,3360,250C3200,250,3040,250,2880,250C2720,250,2560,250,2400,250C2240,250,2080,250,1920,250C1760,250,1600,250,1440,250C1280,250,1120,250,960,250C800,250,640,250,480,250C320,250,160,250,80,250L0,250Z"/></svg>